<svg xmlns="http://www.w3.org/2000/svg" x="0px" y="0px"
width="64" height="64"
viewBox="0 0 172 172"
style=" fill:#000000;"><g fill="none" fill-rule="nonzero" stroke="none" stroke-width="1" stroke-linecap="butt" stroke-linejoin="miter" stroke-miterlimit="10" stroke-dasharray="" stroke-dashoffset="0" font-family="none" font-weight="none" font-size="none" text-anchor="none" style="mix-blend-mode: normal"><path d="M0,172v-172h172v172z" fill="none"></path><g fill="#ffffff"><path d="M8.0625,21.5c-4.44067,0 -8.0625,3.62183 -8.0625,8.0625v110.1875c0,5.9314 4.8186,10.75 10.75,10.75h145.125c5.9314,0 10.75,-4.8186 10.75,-10.75v-83.3125c0,-4.44067 -3.62183,-8.0625 -8.0625,-8.0625h-8.0625v-2.6875c0,-4.44067 -3.62183,-8.0625 -8.0625,-8.0625h-67.97485c-2.1416,0 -4.14673,-0.82935 -5.66895,-2.33057l-10.00464,-9.91016c-2.54053,-2.49854 -5.8999,-3.88428 -9.45874,-3.88428zM8.0625,26.875h41.26782c2.1416,0 4.14673,0.82935 5.66895,2.33057l10.00464,9.91016c2.54053,2.49853 5.8999,3.88428 9.45874,3.88428h67.97485c1.48022,0 2.6875,1.20728 2.6875,2.6875v94.0625c0,1.65869 0.59839,3.60083 1.70068,5.375h-136.07568c-2.96045,0 -5.375,-2.41455 -5.375,-5.375v-16.125h110.1875c1.48022,0 2.6875,-1.20728 2.6875,-2.6875c0,-1.48022 -1.20728,-2.6875 -2.6875,-2.6875h-110.1875v-88.6875c0,-1.48022 1.20728,-2.6875 2.6875,-2.6875zM150.5,53.75h8.0625c1.48022,0 2.6875,1.20728 2.6875,2.6875v83.3125c0,2.96045 -2.41455,5.375 -5.375,5.375c-3.34888,0 -5.375,-3.7373 -5.375,-5.375zM72.5625,59.125c-7.41162,0 -13.4375,6.02588 -13.4375,13.4375v5.375c0,2.66651 0.80835,5.14404 2.1521,7.23315c-7.36963,3.2124 -13.21704,10.30908 -14.83374,19.01196c-0.27295,1.46973 0.69287,2.86597 2.1521,3.13892c1.45923,0.27295 2.86597,-0.69287 3.13892,-2.1521c1.43823,-7.76855 7.02319,-13.93091 13.76294,-15.85205c2.05762,1.28076 4.46167,2.05762 7.06518,2.05762c2.60352,0 5.00757,-0.77685 7.06518,-2.05762c6.73975,1.92114 12.32471,8.09399 13.76294,15.86255c0.24146,1.29126 1.37524,2.19409 2.64551,2.19409c0.16797,0 0.32544,-0.0105 0.49341,-0.04199c1.45923,-0.27295 2.42505,-1.67969 2.1521,-3.13892c-1.6167,-8.70288 -7.46411,-15.81006 -14.83374,-19.02246c1.34375,-2.08911 2.1521,-4.56665 2.1521,-7.23315v-5.375c0,-7.41162 -6.02588,-13.4375 -13.4375,-13.4375zM72.5625,64.5c4.44067,0 8.0625,3.62183 8.0625,8.0625v5.375c0,4.44067 -3.62183,8.0625 -8.0625,8.0625c-4.44067,0 -8.0625,-3.62183 -8.0625,-8.0625v-5.375c0,-4.44067 3.62183,-8.0625 8.0625,-8.0625zM126.3125,118.25c-1.48022,0 -2.6875,1.20728 -2.6875,2.6875c0,1.48022 1.20728,2.6875 2.6875,2.6875h10.75c1.48022,0 2.6875,-1.20728 2.6875,-2.6875c0,-1.48022 -1.20728,-2.6875 -2.6875,-2.6875zM13.4375,129c-1.48022,0 -2.6875,1.20728 -2.6875,2.6875v5.375c0,1.48022 1.20728,2.6875 2.6875,2.6875c1.48022,0 2.6875,-1.20728 2.6875,-2.6875v-5.375c0,-1.48022 -1.20728,-2.6875 -2.6875,-2.6875zM26.875,129c-1.48022,0 -2.6875,1.20728 -2.6875,2.6875v5.375c0,1.48022 1.20728,2.6875 2.6875,2.6875c1.48022,0 2.6875,-1.20728 2.6875,-2.6875v-5.375c0,-1.48022 -1.20728,-2.6875 -2.6875,-2.6875zM40.3125,129c-1.48022,0 -2.6875,1.20728 -2.6875,2.6875v5.375c0,1.48022 1.20728,2.6875 2.6875,2.6875c1.48022,0 2.6875,-1.20728 2.6875,-2.6875v-5.375c0,-1.48022 -1.20728,-2.6875 -2.6875,-2.6875zM53.75,129c-1.48022,0 -2.6875,1.20728 -2.6875,2.6875v5.375c0,1.48022 1.20728,2.6875 2.6875,2.6875c1.48022,0 2.6875,-1.20728 2.6875,-2.6875v-5.375c0,-1.48022 -1.20728,-2.6875 -2.6875,-2.6875zM67.1875,129c-1.48022,0 -2.6875,1.20728 -2.6875,2.6875v5.375c0,1.48022 1.20728,2.6875 2.6875,2.6875c1.48022,0 2.6875,-1.20728 2.6875,-2.6875v-5.375c0,-1.48022 -1.20728,-2.6875 -2.6875,-2.6875zM80.625,129c-1.48022,0 -2.6875,1.20728 -2.6875,2.6875v5.375c0,1.48022 1.20728,2.6875 2.6875,2.6875c1.48022,0 2.6875,-1.20728 2.6875,-2.6875v-5.375c0,-1.48022 -1.20728,-2.6875 -2.6875,-2.6875zM94.0625,129c-1.48022,0 -2.6875,1.20728 -2.6875,2.6875v5.375c0,1.48022 1.20728,2.6875 2.6875,2.6875c1.48022,0 2.6875,-1.20728 2.6875,-2.6875v-5.375c0,-1.48022 -1.20728,-2.6875 -2.6875,-2.6875zM107.5,129c-1.48022,0 -2.6875,1.20728 -2.6875,2.6875v5.375c0,1.48022 1.20728,2.6875 2.6875,2.6875c1.48022,0 2.6875,-1.20728 2.6875,-2.6875v-5.375c0,-1.48022 -1.20728,-2.6875 -2.6875,-2.6875zM120.9375,129c-1.48022,0 -2.6875,1.20728 -2.6875,2.6875v5.375c0,1.48022 1.20728,2.6875 2.6875,2.6875c1.48022,0 2.6875,-1.20728 2.6875,-2.6875v-5.375c0,-1.48022 -1.20728,-2.6875 -2.6875,-2.6875zM134.375,129c-1.48022,0 -2.6875,1.20728 -2.6875,2.6875v5.375c0,1.48022 1.20728,2.6875 2.6875,2.6875c1.48022,0 2.6875,-1.20728 2.6875,-2.6875v-5.375c0,-1.48022 -1.20728,-2.6875 -2.6875,-2.6875z"></path></g></g></svg>